<?xml version="1.0" encoding="utf-8"?>
<!-- Generator: Adobe Illustrator 23.0.6, SVG Export Plug-In . SVG Version: 6.00 Build 0)  -->
<svg version="1.1" id="Layer_1" xmlns="http://www.w3.org/2000/svg" xmlns:xlink="http://www.w3.org/1999/xlink" x="0px" y="0px"
	 viewBox="0 0 103.5 103.5" style="enable-background:new 0 0 103.5 103.5;" xml:space="preserve">
<style type="text/css">
	.st0{fill:#FF7800;}
</style>
<title>rj</title>
<g>
	<g id="Layer_1-2">
		<path class="st0" d="M38.6,103.5h38.5c14.6,0,26.4-11.8,26.4-26.4c0,0,0,0,0,0V0H77.1l0.2,26.2v38.1c0,7.2-5.8,13-13,13H38.6
			V103.5z M38.6,77.3v26.2h30.3 M38.6,77.3v26.2h29.3 M26.2,77.3v-38c0-7.2,5.9-13.1,13.1-13.1h25.3V0H26.4C11.8,0,0,11.8,0,26.4
			c0,0,0,0,0,0v77.1h26.4L26.2,77.3z"/>
	</g>
</g>
</svg>
