<svg id="Layer_1" data-name="Layer 1" xmlns="http://www.w3.org/2000/svg" width="103.5" height="103.5" viewBox="0 0 103.5 103.5">
  <title>rj_svgs</title>
  <path d="M50.7,79.2a29.3,29.3,0,0,1,0-3l-8.5,6.3,8.3,6.6V86.2h.6A35.9,35.9,0,0,0,77.6,25.4a35.9,35.9,0,0,0-50.8-.9,36.1,36.1,0,0,0-.9,50.8l5.1-5a28.9,28.9,0,0,1,.8-40.7,28.9,28.9,0,0,1,20.5-8.1,29.2,29.2,0,0,1,20.2,8.8,28.7,28.7,0,0,1,8,20.6,27.2,27.2,0,0,1-8.8,20.2C64.8,77.1,58.6,79.3,50.7,79.2Z" fill="#ff7800"/>
  <ellipse cx="73" cy="73.2" rx="0.2" ry="0.3" fill="#1f00ff"/>
</svg>
