<svg id="Layer_1" data-name="Layer 1" xmlns="http://www.w3.org/2000/svg" width="103.5" height="103.5" viewBox="0 0 103.5 103.5">
  <defs>
    <style>
      .cls-1 {
        fill: #ff7800;
      }

      .cls-2 {
        fill: #1f00ff;
      }
    </style>
  </defs>
  <title>rj_svg</title>
  <path class="cls-1" d="M78.5,40.8,75.8,42l9.3,5.2,2.5-10.3L85,38l-.2-.5A36,36,0,0,0,65,18.4,35.8,35.8,0,0,0,18.9,66a35.9,35.9,0,0,0,66.3-1l-6.6-2.6A28.7,28.7,0,0,1,41.2,78.5,28.3,28.3,0,0,1,25.4,63.2a28.7,28.7,0,0,1,15-37.9c6.7-2.9,14.8-3.6,22-.3S75.3,33.6,78.5,40.8Z"/>
  <ellipse class="cls-2" cx="73" cy="73.2" rx="0.2" ry="0.3"/>
</svg>
