<svg id="Layer_1" data-name="Layer 1" xmlns="http://www.w3.org/2000/svg" width="103.5" height="103.5" viewBox="0 0 103.5 103.5">
  <defs>
    <style>
      .cls-1 {
        fill: #ff7800;
      }
    </style>
  </defs>
  <title>rj_svg</title>
  <path class="cls-1" d="M71.2,23.5A10.2,10.2,0,0,1,81.4,33.7V59.8S81.3,70,77.3,74.1c-9.6,9.6-38.2,3.2-38.2,3.2A10.2,10.2,0,0,1,28.9,67.1v-21h7L24,32,12.4,46.1h6.7V67.2A19.3,19.3,0,0,0,38.4,86.5S76,95.1,85.9,80.3a30.3,30.3,0,0,0,4.8-11.4,64.3,64.3,0,0,0,.3-9.1v-26A19.3,19.3,0,0,0,71.7,14.5H19.1v9Z"/>
</svg>
