<?xml version="1.0" encoding="utf-8"?>
<!-- Generator: Adobe Illustrator 23.0.6, SVG Export Plug-In . SVG Version: 6.00 Build 0)  -->
<svg version="1.1" xmlns="http://www.w3.org/2000/svg" xmlns:xlink="http://www.w3.org/1999/xlink" x="0px" y="0px"
	 viewBox="0 0 103.5 103.5" style="enable-background:new 0 0 103.5 103.5;" xml:space="preserve">
<style type="text/css">
	.st0{fill:#FF7800;}
	.st1{display:none;}
	.st2{display:inline;fill:#FF7800;}
</style>
<g id="circle">
	<path class="st0" d="M50.7,79.2c0-0.6,0-2.9,0-2.9l-8.5,6.3l8.3,6.6l0-2.9l0.6,0c9.2,0.2,18.4-3.2,25.6-10.1
		c7.1-6.9,10.8-16,11-25.2s-3.2-18.4-10.1-25.6s-16-10.8-25.2-11c-9.2-0.2-18.4,3.2-25.6,10.1s-10.8,16-11,25.2
		c-0.2,9.2,3.2,18.4,10.1,25.6l5.1-4.9c-5.5-5.7-8.2-13.1-8.1-20.5s3.1-14.7,8.8-20.2s13.1-8.2,20.5-8.1c7.4,0.1,14.7,3.1,20.2,8.8
		s8.2,13.1,8.1,20.5s-2.8,15-8.8,20.2C64.8,77.1,58.6,79.3,50.7,79.2z"/>
</g>
<g id="m2" class="st1">
	<path class="st2" d="M23.5,32.3c0-5.6,4.6-10.2,10.2-10.2h26.2c0,0,10.2,0.1,14.2,4.1c9.7,9.5,3.2,38.2,3.2,38.2
		c0,5.6-4.6,10.2-10.2,10.2h-21v-7L32,79.5l14.1,11.6v-6.6h21.1c10.7,0,19.3-8.6,19.3-19.3c0,0,8.7-37.6-6.2-47.5
		c-4.3-2.8-8.4-4.2-11.4-4.8c-2.8-0.5-9.1-0.3-9.1-0.3h-26c-10.7,0-19.3,8.6-19.3,19.3v52.7h8.9V32.3z"/>
</g>
<g id="m1" class="st1">
	<path class="st2" d="M28.2,70.8V38.4c0-5.6,4.6-10.2,10.2-10.2h22.7h14.5v36.5c0,5.6-4.6,10.2-10.2,10.2H40.1v12.8h28.3
		c10.7,0,19.3-8.6,19.3-19.3V15.8h-17h-9.7h-26c-10.7,0-19.3,8.6-19.3,19.3v52.7h12.5V70.8z"/>
</g>
<g id="logo" class="st1">
	<path class="st2" d="M61.1,15.8h-26c-10.7,0-19.3,8.6-19.3,19.3v52.7h17v-17V42.9c0-5.6,4.6-10.2,10.2-10.2h18.2V15.8z M70.8,32.7
		v27.8c0,5.6-4.6,10.2-10.2,10.2H40.1v17h28.3c10.7,0,19.3-8.6,19.3-19.3V15.8h-17V32.7z"/>
</g>
</svg>
